<?xml version="1.0" encoding="UTF-8"?>
<svg id="svg1" xmlns="http://www.w3.org/2000/svg" viewBox="0 0 623 730.66">
  <defs>
    <style>
      .cls-1 {
        fill: #cf103a;
      }
    </style>
  </defs>
  <g id="g1">
    <path id="path1" class="cls-1" d="M288.86,730.07c-24.67-2.58-52.37-10.65-75.22-21.91-56.52-27.85-99.16-76.52-122.89-140.25-1.99-5.34-3.61-10.15-3.61-10.69s-.39-1.22-.86-1.52c-.47-.29-19.91,2.61-43.2,6.46-23.29,3.84-42.66,6.87-43.06,6.72s3.77-13.87,9.25-30.51c11.2-33.98,11.65-25.95-3.81-67.56-3.02-8.14-5.27-15.39-4.99-16.12.95-2.48,18.21-5.72,37.92-7.12q9.75-.69,9.75,47.5t2.75,47.64c18.05-3.69,32.56-5.71,33.24-4.61.49.8,1.83.99,3.83.55,2.94-.65,3.11-.5,4.22,3.64,21.51,80.65,78.76,144.01,151.96,168.18,23.62,7.8,41.44,10.62,67.2,10.63,58.53.03,112.48-23.25,155.51-67.11,28.47-29.01,50.76-67.76,61.36-106.64,2.09-7.69,2.43-8.25,4.89-8.25,1.45,0,3.11-.47,3.69-1.05.73-.73,6.34-.12,18.42,2,9.56,1.67,17.73,3.05,18.15,3.05s.78-21.6.78-48q0-48,2.45-48c6.98,0,45.06,6.17,46.41,7.52.21.21-4.17,11.77-9.74,25.68-5.57,13.91-10.12,25.98-10.12,26.81,0,.84,4.49,14.98,9.99,31.43,5.49,16.45,9.87,30.03,9.73,30.17-.14.14-4.75-.62-10.23-1.69-29.04-5.67-68.38-11.36-74.43-10.76-3.2.32-3.37.58-6.99,10.83-13.08,36.97-33.41,69.32-60.41,96.13-35.98,35.73-79.19,57.94-127.14,65.36-12.24,1.89-42.85,2.71-54.78,1.46h0ZM311.36,702.55c-1.25-.87-2.22-1.09-2.22-.5,0,.65-3.03,1.06-7.95,1.06-6.31,0-8.14-.34-8.86-1.63-.62-1.11-1.13-1.27-1.61-.5-1.16,1.88-9.09,1.35-11.72-.78-2.06-1.67-2.36-2.78-2.37-8.75,0-3.76-.37-7.41-.82-8.11-.45-.7-.54-2.52-.21-4.05.6-2.71.73-2.76,6.04-2.18,2.99.33,5.63.8,5.88,1.05.25.25.11,3.37-.31,6.94-.87,7.38-.46,10.01,1.57,10.01,1.56,0,1.91-.76,2.82-6.25.5-2.98.31-3.75-.92-3.75-1.1,0-1.55-1.01-1.55-3.5,0-3.89.25-3.98,8.47-2.85q4.75.65,4.05,9.25c-.57,7.01-.46,8.37.59,7.35.71-.69,2.66-1.27,4.34-1.29q3.05-.04.31-1.53c-4.6-2.5-4.99-10.17-.63-12.51,2.79-1.49,8.55-1.44,10.39.09.94.78,1.47.84,1.47.16,0-.58,1.69-1.2,3.75-1.37,2.94-.24,3.82-.77,4.05-2.43.42-2.93,7.92-6.43,9.26-4.31.5.79.92,2.19.92,3.12.01.98.96,1.81,2.27,2,1.72.24,2.32,1.08,2.56,3.57.26,2.72-.02,3.25-1.75,3.25s-2.06.63-2.05,3.25c.02,5.18,1.05,7.75,3.08,7.75,1.92,0,3.63,4.02,2.49,5.86-.95,1.54-8.23,2.41-10.41,1.24-2.3-1.23-4.18-6.02-4.18-10.66,0-3.83-.85-6.43-2.11-6.43-.49,0-.89.67-.89,1.5,0,1.01-1.01,1.5-3.07,1.5-1.69,0-3.75-.67-4.57-1.5-1.67-1.67-5.36-2.04-5.36-.54,0,.53,1.87,1.47,4.16,2.08,4.51,1.21,9.84,5.8,9.84,8.46,0,.91-1.32,2.97-2.92,4.58-3.34,3.34-8.23,3.91-11.85,1.37h0ZM314.7,695.58c-2.13-1.61-4.56-1.95-4.56-.63,0,1.47,1.27,2.17,3.92,2.13,2.49-.03,2.51-.09.64-1.5ZM346.6,696.65c-3.44-3.44-3.26-7.89.47-11.62,1.96-1.96,3.93-2.92,6-2.92,1.69,0,3.08-.45,3.08-1,0-1.65-4.28-1.12-7.67.94q-3.17,1.94-4.82-.57c-1.37-2.09-1.42-2.77-.33-4.1,1.95-2.36,8.85-5.23,12.62-5.25,5.78-.04,8.95,2.38,10.66,8.17.85,2.85,1.54,5.74,1.54,6.43,0,1.63,3.8,1.35,4.44-.33.67-1.75-3.2-10.56-4.33-9.86-.68.42-3.11-4.24-3.11-5.95,0-.67,9.21-3.58,10.24-3.24.68.23,2.05-.62,3.04-1.88,2.41-3.06,7.98-4.08,11.1-2.03,1.31.86,3.41,4.06,4.68,7.11,1.27,3.05,2.82,5.55,3.46,5.55.97,0,3.48,4.02,3.48,5.58,0,.67-8.86,4.42-10.46,4.42-.71,0-2.26-2.36-3.45-5.25-3.09-7.53-3.59-8.25-5.7-8.25s-2.13,1.89-.21,6.78c.75,1.91,1.6,2.61,2.74,2.25,1.17-.37,2,.4,2.85,2.66.66,1.75,1.1,3.25.97,3.34-.13.09-3.16,1.32-6.73,2.75-6.03,2.41-6.6,2.47-7.85.91-1.22-1.52-1.29-1.47-.72.46.56,1.9.06,2.28-4.45,3.36-2.8.67-5.35.96-5.67.64s-1.71.31-3.08,1.39c-3.63,2.85-9.67,2.62-12.78-.49h0ZM357.95,689.85c.23-1.2-.31-1.74-1.74-1.74s-2.07.64-2.07,2.07c0,2.56,3.31,2.27,3.81-.33h0ZM253.64,695.38c-2.2-.9-4.22-1.88-4.5-2.2-.28-.31-1.18-.68-2-.82-.82-.14-6.68-2.22-13-4.64-10.47-4-11.48-4.6-11.22-6.75.15-1.3,1.1-3.03,2.1-3.86,2.45-2.01,5.43-9.73,3.94-10.23-.79-.26-.76-1.02.12-2.66.67-1.26,1.02-2.5.76-2.75-.86-.86-7.47,12.13-6.63,13.03.91.98-1.75,6.93-2.87,6.41-7.87-3.64-11.34-6.13-10.9-7.82.41-1.57.21-1.7-1.26-.78-1.64,1.03-4.55-.46-10.39-5.32-.47-.39,1.26-3.69,3.85-7.33,3.84-5.38,4.49-6.88,3.51-8.07-1.57-1.9-3.94-.63-6.26,3.34-1.11,1.91-1.39,3.25-.75,3.65,1.4.87,1.26,1.64-.85,4.37q-1.82,2.36-7.96-2c-3.56-2.53-5.94-4.91-5.67-5.66.27-.74.01-1.02-.61-.64-1.25.77-7.9-5.33-7.9-7.26,0-.72-.79-1.31-1.75-1.33-3.77-.05-8.25-5.61-8.25-10.24,0-2.61,3.27-6.14,6.62-7.15,2.96-.89,7.47.97,10.13,4.19,1.56,1.89,2.25,2.24,2.25,1.14.01-1.75-3.53-5.29-6.25-6.24-2.1-.74-2.24-2.63-.39-5.16,1.32-1.8,1.52-1.78,6.25.56,5.84,2.9,9.41,7.78,9.35,12.82-.03,2.72-.99,4.68-3.91,8.01-3.71,4.22-4.32,7.1-1.51,7.1,1.65,0,13.79-16.65,13.04-17.88-.3-.49.38-2.07,1.51-3.51q2.06-2.62,6.49.55c2.43,1.75,4.42,3.6,4.42,4.12s-1.56,3.08-3.47,5.68q-3.47,4.73.46,5.91c4.27,1.28,7.01,4.3,7.01,7.74,0,1.2-1.55,4.48-3.44,7.28-3.67,5.45-4.32,9.1-1.5,8.37,1.95-.51,6.32-7.84,5.49-9.19-.83-1.35,1.54-6.08,3.05-6.08,1.64,0,8.67,4.05,9.6,5.53.39.62,2.52,1.72,4.75,2.46s4.05,1.91,4.05,2.61c0,.9,1.03,1.11,3.45.72,2.88-.47,3.93-.08,6.32,2.31,2.31,2.31,3.58,2.81,6.56,2.56,3-.25,4.26.25,6.68,2.67,3.51,3.51,3.6,4.45,1.09,11.57-1.17,3.32-1.54,5.74-.96,6.31,1.44,1.44-.8,6.26-2.87,6.2-.98-.03-3.57-.78-5.77-1.68h0ZM250.14,690.61c0-.28-.22-.5-.5-.5s-.5.22-.5.5.22.5.5.5.5-.22.5-.5ZM254.07,678.36c.12-3.69-1.9-2.56-4.03,2.24-1.64,3.7-1.76,4.75-.69,5.92,1.1,1.21,1.55.86,2.97-2.24.92-2.02,1.71-4.68,1.75-5.92ZM237.14,686.61c0-.28-.22-.5-.5-.5s-.5.22-.5.5.22.5.5.5.5-.22.5-.5ZM238.14,683.61c0-.28-.22-.5-.5-.5s-.5.22-.5.5.22.5.5.5.5-.22.5-.5ZM240.36,677.11c1.48-4.64,1.48-5-.07-5-1.07,0-2.24,1.61-3.27,4.46-1.51,4.2-1.32,5.11,1.18,5.46.31.04,1.28-2.17,2.16-4.92h0ZM178.41,640.51c1.12-1.12-.47-3.4-2.37-3.4s-2.57,1.99-1.23,3.33c.83.83,2.8.87,3.6.07h0ZM400.29,677.53c-.65-1.42-.91-2.99-.6-3.5.8-1.3-3.64-8.92-5.2-8.92-1.28,0-3.35-3-3.35-4.84,0-1.25,8.97-6.53,9.75-5.74.33.33,2.24,3.63,4.25,7.34,2.01,3.71,4.17,6.74,4.8,6.74,1.6,0,4.45,4.28,3.68,5.52-.69,1.11-9.88,5.98-11.29,5.98-.48,0-1.4-1.16-2.05-2.57h0ZM413.84,670.53c-.99-1.34-1.53-2.88-1.19-3.43.85-1.37-4.73-9.06-6.18-8.53-1.01.37-4.33-3.4-4.33-4.91,0-1.04,8.27-6.49,9.08-5.99.46.28,1.53-.84,2.39-2.49,3.87-7.48,11.09-6.64,17.07,1.99,1.51,2.17,3.28,3.95,3.95,3.95s2.07.95,3.11,2.11c1.89,2.09,1.88,2.13-1.59,5.07-6.49,5.49-6.41,5.5-11.53-1.67-2.55-3.58-5-6.51-5.43-6.51s-1.29.61-1.91,1.35c-1.6,1.93,2.71,8.15,5.65,8.15,1.2,0,2.86.98,3.7,2.17,1.44,2.05,1.32,2.33-2.23,5.1-2.06,1.61-4.87,3.64-6.25,4.51-2.37,1.5-2.59,1.46-4.3-.86h0ZM225.8,654.28c-1.94-2.15-2.15-5.28-.45-6.97,2.12-2.12,6.61-1.42,8.39,1.3,1.52,2.32,1.52,2.68,0,5-1.95,2.97-5.58,3.28-7.94.67h0ZM454.78,652.27c-.2-.36-.65-1.88-1.01-3.37-.5-2.09-.19-2.95,1.32-3.77,1.51-.81,1.78-1.57,1.16-3.25-.65-1.76-2.59-2.65-9.71-4.45-4.89-1.24-9.6-2.04-10.47-1.78s-2.51-.54-3.67-1.78q-2.1-2.26,2.76-7.6,4.86-5.34,7.39-3.5c1.39,1.01,2.35,2.36,2.13,2.99-.36,1.02,3.38,2.76,4.19,1.95.66-.66-.99-3.6-2.02-3.6-.59,0-2.1-.96-3.34-2.12q-2.26-2.12,1.44-6.55c2.47-2.95,4.28-4.27,5.45-3.97,1.41.37,1.75-.2,1.75-2.87,0-4.07,4-9.17,8.74-11.15,2.99-1.25,3.79-1.19,7.8.58,2.63,1.16,4.46,2.64,4.46,3.59,0,.89-1.79,3.95-3.97,6.81-3.24,4.23-3.66,5.26-2.3,5.55,2.14.46,5.27-3.38,5.27-6.47,0-2.06.48-2.39,3.5-2.39s3.5.3,3.5,2.54c0,3.32-3.12,9.32-6.48,12.46-3.88,3.62-10.85,3.51-15.8-.26q-3.62-2.76-1.17,2.78c1.35,3.05,3.8,8.22,5.45,11.48,3.66,7.26,3.79,10.91.51,14.8-2.41,2.87-6.14,4.68-6.87,3.35h0ZM463.88,605.51c-1.27-1.27-3.74.57-3.74,2.79s0,2.25,2.19.06c1.21-1.21,1.9-2.49,1.54-2.85h0ZM292.69,630.59c-22.38-3.65-43.49-12.85-59.84-26.06-6.48-5.24-9.98-6.43-7.57-2.57.86,1.37.6,2.74-1.17,6.2-4.15,8.13-7.02,12.01-9.63,13-6.88,2.62-7.25-5.78-.84-18.95,2.47-5.09,4.5-9.67,4.5-10.19s-2.59-4.03-5.75-7.81c-10.21-12.19-19.44-29.73-24.1-45.8-3.2-11.03-3.52-13.32-1.86-13.32.9,0,1.68,1.42,2.06,3.75,1.93,11.88,10.04,30.78,18.86,43.94q6.16,9.19,7.92,5.27c1.91-4.26,5.67-7.04,13.18-9.74,4.53-1.63,5.25-2.42,12.41-13.73,4.18-6.6,8.31-13.09,9.17-14.41q1.56-2.41-4.06-1.75c-3.09.36-11.61,2.46-18.93,4.66-7.32,2.2-14.11,4-15.1,4-2.79,0-2.2-3.59,1.81-10.92,6.27-11.48,8.83-13.29,22.82-16.18,10.94-2.26,31.58-2.54,39.08-.54,13.68,3.65,19.7,9.93,21.11,22.03,1.93,16.54-8.7,35.58-24.23,43.42-11.24,5.67-19.62,7.64-32.64,7.67-10.62.02-11.82.21-12.36,1.9-.65,2.06.86,3.55,11.3,11.18,13,9.5,30.22,17.26,46.82,21.08,10.04,2.31,37.35,2.58,48,.47,11.25-2.23,24.16-6.8,34.43-12.2,13.23-6.95,13.76-7.46,13.25-12.76q-.42-4.35-6.23,1.73c-7.21,7.54-14.26,12.12-18.63,12.12s-6.33-3.74-6.33-12.12q0-6.22-7.89,1.45c-6.33,6.16-8.49,7.67-10.93,7.67-3.45,0-6.1-3.02-8.11-9.23q-1.21-3.73-5.15.82c-16.44,19-30.45,15.36-28.64-7.43,1.03-13,12.97-30.16,20.98-30.16,9,0,7.26,7.68-4.91,21.63-6.29,7.21-6.49,7.61-5.32,10.43,1.03,2.5,1.76,2.93,4.84,2.9,6.44-.06,15.1-6.91,18.9-14.95,3.57-7.55,11.18-14.86,20.12-19.33,7.69-3.84,13.01-4.65,15.34-2.33,1.15,1.15,2.18-.44,6.6-10.25,6.31-13.98,11.7-22.24,15.37-23.52,3.69-1.29,5.81.65,5.8,5.28-.01,4.4-1.98,8.7-14.01,30.62-9.94,18.12-11.98,23.26-11.98,30.2,0,7.81,3.49,7.14,14.33-2.76,4.76-4.35,7.55-7.86,9.2-11.59,3.03-6.85,11.27-15.57,17.78-18.81,5.35-2.67,12.32-3.34,15.73-1.51,1.69.9,2.3.24,5.31-5.75,3.94-7.86,7.75-18.33,9.64-26.52.81-3.53,1.85-5.75,2.69-5.75,1.62,0,1.33,1.59-2.73,15-1.58,5.22-4.62,13.1-6.75,17.5-2.13,4.4-4.19,10-4.58,12.45-1.03,6.48-4,10.57-12.01,16.54-3.91,2.92-9.12,7.37-11.57,9.91-4.16,4.29-4.35,4.72-2.8,6.27,2.05,2.05,7.63,1.97,11.76-.17,1.66-.86,6.19-4.29,10.07-7.63,3.88-3.34,7.21-5.91,7.41-5.72.19.19.65,1.54,1.02,2.99.58,2.31-.35,3.66-7.67,11.09-9.46,9.6-16.63,13.78-23.64,13.78-3.78,0-4.97-.55-8.2-3.78q-3.78-3.78-7.13-1.43c-9.97,6.98-29.81,14.96-44.04,17.71-11.93,2.31-31.39,2.76-42.27.98h0ZM341.74,594.86c5.95-5.43,14.85-16.64,13.93-17.56-.29-.29-4.32,1.36-8.97,3.67-9.56,4.74-12.57,8.06-13.32,14.73-.67,5.99,1.06,5.81,8.36-.84ZM396.14,594.92c0-1.31-2.27-.49-2.77,1-.24.73.21.95,1.19.58.87-.33,1.58-1.05,1.58-1.58ZM398.99,584.69c5.6-2.9,13.7-13.58,10.3-13.58-1.89,0-7.76,4.78-10.86,8.84-4.62,6.06-4.47,7.34.56,4.74ZM266.53,571.75c4.6-2.28,9.33-5.75,13.39-9.8,10.09-10.08,10.64-16.53,1.78-20.82-4.6-2.23-12.89-4.02-18.56-4.02-3.27,0-3.81.34-4.31,2.75-.31,1.51-3.29,7.34-6.62,12.95-3.33,5.61-6.06,10.45-6.06,10.75s1.55.55,3.44.55c6.64,0,5.25,2.9-2.44,5.06-4.14,1.16-7,3.23-7,5.06,0,1.35,3.44,1.78,11.39,1.42,6.58-.3,9.06-.95,15-3.89h0ZM153.08,625.04q-4.2-5.02-2-7.36c1.21-1.29,2.96-2.17,3.88-1.95,1.95.45,8.55-5.21,7.69-6.59-.32-.51.58-1.69,2-2.62,2.5-1.64,2.66-1.61,5.56,1.17,1.64,1.57,2.85,3.55,2.68,4.39-.19.95.83,1.91,2.71,2.53,3.94,1.31,4.14,3.47.58,6.25-2.77,2.17-2.98,2.19-5.84.55-2.79-1.6-3.11-1.6-5.59.02-1.44.95-2.62,2.56-2.62,3.58s-1.09,2.58-2.43,3.45c-2.37,1.56-2.52,1.48-6.63-3.43h0ZM143.91,612.14c-1.37-1.08-3.1-3.44-3.83-5.25-.73-1.81-1.61-3.51-1.96-3.78-1.06-.84-5.98-8.41-5.98-9.21,0-1.05,5.62-3.84,6.33-3.13.85.85,18.67-10.84,18.67-12.24,0-.65,1.13-1.93,2.51-2.83,2.48-1.63,2.53-1.6,5.5,3.08,1.65,2.6,2.99,5.05,2.99,5.44s-2.33,2.15-5.19,3.91c-4.35,2.67-4.91,3.34-3.5,4.14,2.34,1.31,4.69,6.17,4.69,9.72,0,8.52-13.62,15.36-20.23,10.16ZM151.07,602.65c2.92-1.51,4.5-4.04,3.52-5.63-1.78-2.88-10.38,2.22-9.14,5.43.78,2.04,1.98,2.08,5.63.19ZM478.89,604.03c-.96-.56-1.75-1.61-1.75-2.34,0-1.78-7.57-6.69-9.29-6.02-.76.29-2.4-.29-3.64-1.3q-2.26-1.83-.07-5.54c1.21-2.04,2.85-3.72,3.66-3.72.94,0,1.27-.63.92-1.75-.3-.96.1-2.88.89-4.25s2.44-4.41,3.68-6.75c1.23-2.34,2.61-4.25,3.07-4.25s3.9,1.55,7.66,3.44c3.76,1.89,7.69,3.22,8.72,2.95,1.04-.27,2.73.12,3.75.87,1.79,1.32,1.76,1.56-.87,6.8-1.5,2.99-2.89,5.61-3.08,5.82-.65.72-6.39-2.11-5.9-2.9.27-.43-.98-1.64-2.76-2.69-5.25-3.08-6.62-3.39-6.54-1.48.04.93-.26,2.91-.66,4.4-.64,2.33-.3,2.97,2.44,4.64,1.75,1.06,3.93,1.74,4.85,1.5.92-.24,2.53.2,3.58.97,1.85,1.36,1.81,1.58-1.32,7.05-3.3,5.76-4.26,6.36-7.33,4.57h0ZM126.36,582.59c-1.77-3.59-3.21-6.89-3.21-7.34s1.2-1.37,2.66-2.03c2.12-.97,2.82-.95,3.46.08,1.2,1.93,17.88-6.49,17.88-9.02,0-1.53,4.68-4.9,5.51-3.96.87.99,6.49,12.92,6.49,13.78,0,.58-1.16,1.58-2.57,2.22-2.03.92-2.74.9-3.38-.13-1.14-1.85-17.66,6.74-17.3,9,.22,1.38-3.4,3.91-5.59,3.91-.41,0-2.18-2.93-3.95-6.52h0ZM464.34,572.91c-2.9-2.9-.1-9.8,3.97-9.8,2.08,0,4.83,3.23,4.83,5.67,0,4.1-6.01,6.92-8.8,4.13ZM159.36,568.55c-2.45-1.72-3.01-6.25-1.02-8.24,3.02-3.02,8.8-.19,8.8,4.31,0,2.01-3.17,5.49-5,5.49-.31,0-1.56-.7-2.78-1.56ZM313.8,562.28c-3.27-3.61-.96-10.93,4.31-13.65,4.04-2.09,5.73-1.91,7.52.82,2.09,3.19,1.02,7.77-2.71,11.59-3.41,3.49-6.69,3.93-9.12,1.25h0ZM58.14,472.77q0-58.34,25.75-62.5c38.97-6.31,81.49-11.69,107.75-13.65,4.4-.33,9.46-.82,11.24-1.1q3.24-.5-.26-5.58c-7.25-10.53-8.41-23.19-2.86-31.12,3.67-5.25,14.55-10.99,25.38-13.39,9.53-2.12,40.8-2.38,52.5-.45,11.51,1.9,34.05,8.53,73.71,21.68,37.75,12.52,47.35,14.7,54.19,12.31,5.44-1.9,7.53-5.21,8.77-13.93,1.3-9.15.5-38.23-1.58-57.44-4.5-41.47-5.72-77.73-3.12-92.62,4.03-23.09,17.43-54.88,23.14-54.88.82,0,2.9.73,4.62,1.61,1.72.89,6.53,2.21,10.7,2.95,15.9,2.79,30.63-2.19,43.32-14.65,3.88-3.82,7.21-6.79,7.39-6.61.18.18-1.35,3.23-3.39,6.77-2.5,4.34-8.53,11.25-18.45,21.18-17.11,17.13-17.16,16.69,1.45,14.87,34.46-3.36,53.45-16.79,58.88-41.61,1.67-7.63,1.65-29.2-.03-36.89-5.63-25.77-18.31-45.39-37.48-58.01-13.28-8.74-28.25-15.7-38.73-18-2.51-.55-2.65-.35-3.31,4.58-1.85,13.93-9.87,21.6-23.62,22.59-11.41.82-26.78-4.16-57.95-18.76-9.07-4.25-20.67-9.39-25.77-11.43-33.35-13.31-58.86-15.44-76.59-6.4-4.72,2.41-12.47,9.51-14.89,13.64q-1.75,2.99,2.7,5.6c11.86,6.95,25.55,20.42,25.55,25.15,0,.67-3.33-.48-7.77-2.69-19.29-9.62-54.99-13.68-74.23-8.44-19.08,5.19-33.08,18.51-39.32,37.38-10.66,32.25-5.42,62.87,13.63,79.72,6.16,5.45,20.57,12.65,29.8,14.88,14.77,3.58,31.98,4.13,44.39,1.42,10.97-2.4,27.37-11.8,39.46-22.62q5.4-4.84-1.53-7.75c-13.33-5.59-24.13-12.21-29.43-18.04-2.18-2.4-2.24-2.65-.5-1.99,18.76,7.18,29.31,9.06,50.5,8.99,14.11-.04,19.39-.47,27.26-2.21,26.43-5.85,48.75-16.62,76.86-37.1,3.93-2.86,1.55,3.01-5.35,13.2-6.96,10.29-20.12,22.9-31.58,30.26-.41.26-1.3,6.74-6.18,44.87-2.25,17.58-4.24,32.11-4.43,32.3-.62.62-1.4-3.89-6.06-34.75-2.53-16.78-4.76-30.97-4.95-31.55-.24-.71-2.97-.55-8.4.49q-8.04,1.55-11.09,13.05c-7.13,26.95-12.03,44.28-12.67,44.87-.38.35-.41-12.08-.06-27.62q.62-28.25-1.72-28.25c-1.29,0-4.32-.27-6.73-.59-4.05-.55-4.52-.37-6.06,2.27-7.29,12.49-28.69,27.76-49.47,35.29q-6.14,2.23-12.27,15.09c-15.66,32.87-32.23,75.91-41.11,106.79-1.16,4.04-2.27,7.19-2.45,7-.19-.19.94-7.55,2.51-16.35s6.26-35.35,10.43-59,7.78-43.92,8.03-45.04c.41-1.9-.39-2.16-11.77-3.73-34.73-4.8-58.27-14.82-67.59-28.77-8.32-12.46-11.49-25.34-11.43-46.45.04-16.91,2.08-29.04,7.43-44.19,9.29-26.32,21.62-38.64,45.59-45.54,6.63-1.91,10.1-2.23,23.29-2.18,10.78.04,17.1.52,20.74,1.58q5.24,1.52,8.29-3.23c4.51-7.02,18.57-20.05,26.91-24.91,35.67-20.83,80.92-16.77,125.29,11.24,16.75,10.58,31.9,13.94,40.03,8.89,6.92-4.3,10.77-14.51,7.66-20.31-.59-1.11-.82-2.28-.5-2.6.99-.99,23.61,3.84,32.58,6.95,24.85,8.62,45.69,22.67,60.01,40.48,11.62,14.45,21.85,34.48,25.5,49.91,2.31,9.79,2.14,25.89-.38,35.54-2.31,8.85-9.5,23.75-15.64,32.4-7.99,11.26-22.45,23.39-36.03,30.24-23.01,11.6-43.36,9.93-68.73-5.62-3.72-2.28-7.17-4.15-7.65-4.15-1.34,0-2.84,5.08-4.16,14.16-2.21,15.15.06,61.12,5.07,102.34,4.68,38.51,4.85,41.1,3.65,56.64q-.82,10.64,3.91,14.25c2.6,1.99,4.33,3.67,3.84,3.73-.49.07-3.48.02-6.64-.09-4.37-.16-5.75.13-5.75,1.19,0,.77-1.33,2.76-2.95,4.42q-2.95,3.02,10.75,4.24c32.16,2.88,67.21,7.47,104.36,13.67,11.37,1.9,20.93,3.45,21.25,3.45s.58,26.33.58,58.5c0,49.07-.22,58.5-1.38,58.5-.76,0-11.9-1.78-24.75-3.95-53.38-9.03-98.97-14.4-154.87-18.25-25.34-1.75-129.4-1.74-153.5.01-60.76,4.41-111.44,10.82-159.92,20.23-5.54,1.08-10.41,1.96-10.83,1.96-.41,0-.75-26.25-.75-58.33h0ZM188.64,492.56c13.75-1.41,26.07-2.78,27.37-3.05,2.28-.48,2.35-.74,1.71-6.7-1.83-17.1-1.23-15.8-6.97-15.17-12.28,1.36-11.64,1.02-10.97,5.9.69,5.04.72,5.03-9.9,6.06-6.1.6-6.76.48-6.8-1.17-.03-1.01-.39-4.85-.8-8.54-.86-7.71-1.68-7.09,11.1-8.3q6.75-.64,6.73-5.81c-.02-7.82-.22-7.95-10.45-6.68-4.83.6-8.98.9-9.21.67s-.69-3.56-1.01-7.39q-.58-6.96,4.8-7.61c2.96-.36,6.84-.65,8.63-.65,3.15-.01,3.25.12,3.25,4.14s0,4.14,8.21,3.46c4.51-.38,8.39-.87,8.61-1.09.37-.37-1.73-20.76-2.19-21.22-.11-.11-12.56,1.12-27.66,2.73-15.1,1.61-28.48,2.94-29.71,2.95-1.98.02-2.25.53-2.24,4.27.02,6.96.84,8.75,4.02,8.75,3.4,0,3.37-.11,5.45,21,.84,8.52,1.78,17.14,2.09,19.15.53,3.44.38,3.69-2.51,4.33-2.75.6-3.07,1.06-3.06,4.35.02,6.25.93,8.17,3.85,8.18,1.45,0,13.88-1.15,27.63-2.55h0ZM463.53,490.86c.28-2.34.77-7.22,1.07-10.86q.56-6.61-4.71-7.24c-2.89-.35-6.73-.64-8.51-.64-3-.01-3.25.24-3.27,3.24-.03,5.53-.74,5.91-9.53,5.03q-7.89-.78-7.65-5.78c.13-2.75.5-6.69.81-8.75.48-3.19.88-3.68,2.73-3.31,1.19.24,5.36.71,9.28,1.04q7.12.6,7.75-2.57c.35-1.74.63-4.63.63-6.4,0-3.22-.02-3.23-6.15-3.88-3.38-.35-7.68-.64-9.56-.64q-3.41,0-2.72-7.25c.38-3.99.82-7.4.97-7.58s3.92-.01,8.37.38q8.09.71,8.09,5.06c0,4.91.15,5,10.24,5.67,6.71.45,6.32,1.09,7.25-11.92.75-10.57,5.39-8.91-34.85-12.47-27.02-2.39-25.82-2.66-25.39,5.62.24,4.66.45,5.02,3.05,5.32,2.77.32,2.79.37,2.23,6-.77,7.7-3.52,38.06-3.52,38.82,0,.34-1.31.35-2.91.03-2.09-.42-3.08-.15-3.5.96-.85,2.23-.73,11.37.16,11.43.41.03,12,1.1,25.75,2.38,13.75,1.28,26.88,2.38,29.19,2.45q4.19.12,4.71-4.13h0ZM108.14,487.06c6.33-1.18,11.8-2.44,12.17-2.8.59-.58-.87-11.17-1.65-11.96-.17-.17-6.57.92-14.23,2.43q-13.93,2.74-13.02,7.81c1.31,7.32,1.53,7.77,3.48,7.19.97-.29,6.93-1.49,13.25-2.67ZM391.84,488.15c4.53-2.76,6.07-5.64,6.87-12.79q.69-6.25-2.43-6.25c-2.35,0-3.13.45-3.13,1.81,0,.99-.68,2.68-1.5,3.75-1.48,1.92-1.52,1.92-3,0-.82-1.07-1.5-3.68-1.5-5.8s-.67-5.16-1.5-6.76c-1.66-3.2-7.4-8-9.6-8.01-.77,0,.84-1.07,3.59-2.36,8.39-3.94,11.09-8.64,10-17.44-.86-6.92-4.67-11.37-12.15-14.17-4.55-1.7-9.19-2.22-26.19-2.92-11.36-.47-20.72-.8-20.79-.73-.07.07-.36,2.94-.64,6.37q-.51,6.25,2.53,6.25,3.04,0,2.39,12.16c-.36,6.69-.65,16.81-.65,22.5q0,10.34-2.86,10.34c-2.78,0-2.88.17-3.43,6.24-.31,3.43-.49,6.31-.39,6.39.1.08,7.38.31,16.18.51q16,.36,16.3-5.89.3-6.25-2.75-6.25-3.05,0-3.05-8,0-8,3.31-8c5.86,0,6.95,1.66,7.67,11.69.85,11.73,3.49,15.79,11.96,18.36,4.83,1.46,11.44,1.01,14.75-1.01ZM355.14,438.99q0-9.12,5.67-8.65c4.33.36,6.1,1.01,7.5,2.73,1.82,2.24,2.41,7.38,1.21,10.5-.93,2.42-5.76,4.54-10.33,4.54q-4.05,0-4.05-9.12ZM241.27,488.11q9.88,0,9.88-6.5c0-6.48-.01-6.5-2.85-6.5s-2.85,0-3.5-12.75c-.36-7.01-.61-16.12-.57-20.25q.08-7.5,1.96-.23c1.03,4,4.61,15.81,7.96,26.25q6.08,18.98,16.44,18.98,10.37,0,13.5-13.25c1.72-7.29,4.26-18.42,5.63-24.75,1.37-6.33,2.8-12.62,3.17-14,.77-2.87,1.93,12.9,2.12,28.75q.12,10.25-2.38,10.25c-2.39,0-2.5.27-2.5,6s0,6,10.86,6c5.97,0,12.95-.29,15.5-.64q4.64-.64,4.64-6.5c0-5.55-.13-5.86-2.44-5.86-1.34,0-2.64-.34-2.88-.75-.24-.41-.77-10.76-1.16-23q-.72-22.25,1.88-22.25c2.52,0,2.6-.19,2.6-6.14s0-6.14-18.74-5.42c-11.02.43-19.01,1.15-19.38,1.76-.35.57-2.37,9.08-4.48,18.92-2.11,9.83-4.09,17.88-4.38,17.88s-2.95-7.99-5.9-17.75-5.71-18.13-6.13-18.6-9.14-.52-19.37-.12q-18.6.73-18.6,5.02c0,5.78.79,7.45,3.5,7.45,2.26,0,2.29.19,2.9,15.75.34,8.66.77,19.01.96,23q.34,7.25-2.51,7.25c-2.81,0-2.85.09-2.85,5.83,0,3.21.33,6.17.74,6.58s2.04.48,3.62.17c1.59-.32,7.33-.58,12.76-.58h0ZM528.87,483.36c.59-3.16.78-6.03.42-6.36-.54-.5-21.12-4.62-26.09-5.22-1.65-.2-4.39,11-2.92,11.92.96.59,23.4,5.21,25.94,5.33,1.15.06,1.87-1.48,2.65-5.67h0ZM324.12,385.04c-9.61-3.34-18.38-6.26-19.48-6.49-1.48-.31-3.23,1.11-6.75,5.48-2.61,3.24-4.75,6.16-4.75,6.49s10.9.6,24.23.6q24.23,0,6.75-6.07ZM255.99,387.91c3.74-1.14,19.65-11.48,22.49-14.63,1.8-1.99,1.77-2.06-1.32-3.66-2.98-1.54-3.39-1.52-7.41.43-5.6,2.71-9.73,2.6-18.66-.52-5.53-1.93-8.44-2.42-11.57-1.95-4.71.71-12.72,5.59-15.09,9.2-1.43,2.18-1.42,2.55.09,4.21,2.72,3,11.39,7.25,16.41,8.04,5.14.81,9.87.46,15.05-1.12h0ZM226.14,308.31c0-5.68,8.31-27.86,21.62-57.7,12-26.92,14.6-31.92,16.8-32.34,1.74-.34,1.84.13,1.29,6.06-1.1,11.75-10.02,36.47-21.75,60.29-11.32,22.97-17.96,31.74-17.96,23.7ZM200.64,167.39c-11.61-4.7-20.46-13.35-24.57-24.02-3.43-8.88-3.87-26.25-.98-38.74,1.21-5.22,2.5-9.67,2.87-9.91.38-.23.54,4.73.37,11.02-.25,9.04.12,13.17,1.76,19.66,3.66,14.48,10.54,26.83,21.42,38.46,5.31,5.67,5.22,6-.87,3.53Z"/>
  </g>
</svg>